# xmcd
#
# Track frame offsets: 
#        150
#        17761
#        33777
#        51385
#
# Disc length: 894 seconds
#
# Revision: 1
# Processed by: cddbd v1.5.2PL0 Copyright (c) Steve Scherf et al.
# Submitted via: ExactAudioCopyFreeDBPlugin 1.0
#
DISCID=29037c04
DTITLE=MICHI - Cry for the Truth ／ Secret Sky
DYEAR=2015
DGENRE=Anime
TTITLE0=Cry for the Truth
TTITLE1=Secret Sky
TTITLE2=Cry for the Truth (Instrumental)
TTITLE3=Secret Sky (Instrumental)
EXTD=
EXTT0=
EXTT1=
EXTT2=
EXTT3=
PLAYORDER=
